<svg xmlns="http://www.w3.org/2000/svg" viewBox="0 0 249.47 174.91"><defs><style>.cls-1{fill:#fff;}</style></defs><g id="Layer_2" data-name="Layer 2"><g id="Icons_outlines_copy" data-name="Icons outlines copy"><path class="cls-1" d="M19.7,112.84a15.55,15.55,0,0,0,15.54,15.55H215.41A15.55,15.55,0,0,0,231,112.84v-5.76H19.7Z"/><path class="cls-1" d="M231,62.07a15.55,15.55,0,0,0-15.54-15.55H35.24A15.55,15.55,0,0,0,19.7,62.07v5.76H231Z"/><path class="cls-1" d="M237.61,75.77H11.86a11.86,11.86,0,0,0,0,23.72H237.61a11.86,11.86,0,0,0,0-23.72ZM225.34,88.22l-4.9,4.14a8.89,8.89,0,0,1-11.51,0l-5.42-4.53a2.53,2.53,0,0,0-3.27,0l-5,4.25a9.45,9.45,0,0,1-12.23,0L178,88a2.54,2.54,0,0,0-3.29,0l-4.9,4.19a9.45,9.45,0,0,1-12.23.06L152.55,88a2.53,2.53,0,0,0-3.27,0l-5,4.24a9.45,9.45,0,0,1-12.24,0l-4.92-4.16a2.54,2.54,0,0,0-3.3,0l-4.87,4.17a9.43,9.43,0,0,1-12.23.07l-5.07-4.23a2.53,2.53,0,0,0-3.27,0l-5,4.24a9.45,9.45,0,0,1-12.23,0l-5-4.18a2.53,2.53,0,0,0-3.29,0L68,92.41a9.45,9.45,0,0,1-12.23.06l-5.07-4.23a2.53,2.53,0,0,0-3.27,0L42,92.79a8.87,8.87,0,0,1-11.52,0l-5.26-4.63A3.46,3.46,0,0,1,29.84,83L35,87.56a2,2,0,0,0,2.52,0L42.93,83a9.45,9.45,0,0,1,12.2,0l5.07,4.24a2.53,2.53,0,0,0,3.28,0L68.38,83a9.43,9.43,0,0,1,12.26,0l5,4.17a2.54,2.54,0,0,0,3.28,0l5-4.25a9.47,9.47,0,0,1,12.2,0L111.15,87a2.53,2.53,0,0,0,3.28,0l4.88-4.17a9.42,9.42,0,0,1,12.27,0L136.5,87a2.56,2.56,0,0,0,3.29,0l5-4.25a9.45,9.45,0,0,1,12.2,0l5.07,4.24a2.53,2.53,0,0,0,3.28,0l4.9-4.18a9.43,9.43,0,0,1,12.26,0l5,4.17a2.52,2.52,0,0,0,3.28,0l5-4.25a9.47,9.47,0,0,1,12.2,0l5.42,4.54a2,2,0,0,0,2.57,0l4.91-4.15a3.47,3.47,0,0,1,4.48,5.29Z"/><path d="M195.42,0,37.28,158.15,54,174.91,212.19,16.76,195.42,0Z"/><rect class="cls-1" x="18.83" y="81.53" width="211.8" height="11.85" transform="translate(-25.3 113.83) rotate(-45)"/></g></g></svg>