<?xml version="1.0" encoding="utf-8"?>
<!-- Generator: Adobe Illustrator 16.0.0, SVG Export Plug-In . SVG Version: 6.00 Build 0)  -->
<!DOCTYPE svg PUBLIC "-//W3C//DTD SVG 1.1//EN" "http://www.w3.org/Graphics/SVG/1.1/DTD/svg11.dtd">
<svg version="1.1" id="Layer_1" xmlns="http://www.w3.org/2000/svg" xmlns:xlink="http://www.w3.org/1999/xlink" x="0px" y="0px"
	 width="503.841px" height="503.841px" viewBox="0 0 503.841 503.841" enable-background="new 0 0 503.841 503.841"
	 xml:space="preserve">
<g fill="none">
	<defs>
		<rect id="SVGID_1_" width="503.841" height="503.841"/>
	</defs>
	<use xlink:href="#SVGID_1_"  overflow="visible"/>
	<clipPath id="SVGID_2_">
		<use xlink:href="#SVGID_1_"  overflow="visible"/>
	</clipPath>
	<path clip-path="url(#SVGID_2_)" fill="#FFFFFF" d="M251.92,45.391c67.266,0,75.233,0.257,101.797,1.469
		c24.562,1.12,37.9,5.224,46.778,8.674c11.759,4.57,20.151,10.029,28.967,18.845c8.814,8.815,14.274,17.207,18.844,28.966
		c3.45,8.877,7.554,22.216,8.675,46.778c1.212,26.564,1.468,34.532,1.468,101.798c0,67.265-0.256,75.232-1.468,101.797
		c-1.121,24.562-5.225,37.901-8.675,46.778c-4.569,11.759-10.029,20.15-18.844,28.966c-8.815,8.816-17.208,14.275-28.967,18.845
		c-8.878,3.45-22.217,7.554-46.778,8.674c-26.561,1.212-34.527,1.47-101.797,1.47s-75.237-0.258-101.797-1.47
		c-24.562-1.12-37.902-5.224-46.779-8.674c-11.758-4.569-20.151-10.028-28.966-18.845c-8.815-8.815-14.275-17.207-18.845-28.966
		c-3.449-8.877-7.553-22.216-8.674-46.778c-1.212-26.564-1.468-34.532-1.468-101.797c0-67.266,0.256-75.234,1.468-101.798
		c1.121-24.562,5.225-37.901,8.674-46.778c4.57-11.759,10.03-20.151,18.845-28.966c8.815-8.816,17.208-14.275,28.966-18.845
		c8.877-3.45,22.217-7.554,46.778-8.674C176.688,45.648,184.654,45.391,251.92,45.391 M251.92,0
		c-68.418,0-76.997,0.29-103.866,1.516c-26.815,1.223-45.127,5.482-61.152,11.709c-16.566,6.438-30.615,15.052-44.62,29.057
		C28.277,56.288,19.664,70.337,13.226,86.903c-6.228,16.024-10.486,34.337-11.71,61.151C0.29,174.924,0,183.503,0,251.921
		c0,68.417,0.29,76.996,1.516,103.866c1.224,26.813,5.482,45.127,11.71,61.15c6.438,16.566,15.052,30.615,29.057,44.621
		c14.005,14.005,28.054,22.619,44.62,29.058c16.025,6.227,34.337,10.485,61.152,11.709c26.869,1.227,35.448,1.516,103.866,1.516
		c68.418,0,76.996-0.289,103.866-1.516c26.815-1.224,45.127-5.482,61.152-11.709c16.566-6.438,30.615-15.053,44.62-29.058
		c14.005-14.006,22.619-28.055,29.057-44.621c6.229-16.023,10.486-34.337,11.71-61.15c1.227-26.87,1.516-35.449,1.516-103.866
		c0-68.418-0.289-76.997-1.516-103.867c-1.224-26.814-5.481-45.127-11.71-61.151c-6.438-16.566-15.052-30.615-29.057-44.621
		c-14.005-14.005-28.054-22.619-44.62-29.057c-16.025-6.227-34.337-10.486-61.152-11.709C328.916,0.29,320.339,0,251.92,0"/>
	<path clip-path="url(#SVGID_2_)" fill="#FFFFFF" d="M251.92,122.556c-71.446,0-129.365,57.918-129.365,129.365
		c0,71.446,57.919,129.364,129.365,129.364s129.365-57.918,129.365-129.364C381.285,180.474,323.366,122.556,251.92,122.556
		 M251.92,335.894c-46.377,0-83.974-37.596-83.974-83.973c0-46.378,37.597-83.974,83.974-83.974
		c46.377,0,83.973,37.596,83.973,83.974C335.894,298.298,298.298,335.894,251.92,335.894"/>
	<path clip-path="url(#SVGID_2_)" fill="#FFFFFF" d="M416.627,117.444c0,16.696-13.535,30.23-30.23,30.23s-30.23-13.534-30.23-30.23
		c0-16.696,13.535-30.23,30.23-30.23S416.627,100.749,416.627,117.444"/>
</g>
</svg>
