<?xml version="1.0" encoding="UTF-8"?>
<svg width="2141px" height="478px" viewBox="0 0 2141 478" version="1.1" xmlns="http://www.w3.org/2000/svg" xmlns:xlink="http://www.w3.org/1999/xlink">
    <title>IF YOU DON’T</title>
    <g id="If-You-Don’t" stroke="none" stroke-width="1" fill="none" fill-rule="evenodd">
        <g id="IYD_Header_ToDontCo" transform="translate(-80, -61)" fill="#000000" fill-rule="nonzero">
            <g id="IF-YOU-DON’T" transform="translate(80.3, 61.85)">
                <polygon id="Path" points="0 472.15 82.36 472.15 82.36 4.97 0 4.97"></polygon>
                <polygon id="Path" points="122.12 472.15 204.48 472.15 204.48 280.45 255.6 280.45 255.6 217.97 204.48 217.97 204.48 81.65 266.96 81.65 266.96 4.97 122.12 4.97"></polygon>
                <polygon id="Path" points="429.49 472.15 511.85 472.15 511.85 310.98 580.01 4.97 500.49 4.97 479.9 215.13 478.48 215.13 457.18 4.97 361.33 4.97 429.49 310.98"></polygon>
                <path d="M694.26,477.12 C767.39,477.12 795.08,430.26 795.08,236.43 C795.08,52.54 768.1,0 694.26,0 C620.42,0 593.44,52.54 593.44,236.43 C593.44,430.26 621.13,477.12 694.26,477.12 Z M694.26,400.44 C680.77,400.44 675.8,388.37 675.8,236.43 C675.8,91.59 680.77,76.68 694.26,76.68 C707.75,76.68 712.72,91.59 712.72,236.43 C712.72,388.37 707.75,400.44 694.26,400.44 Z" id="Shape"></path>
                <path d="M922.17,477.12 C980.39,477.12 1015.89,452.27 1015.89,345.06 L1015.89,4.97 L947.02,4.97 L947.02,347.9 C947.02,394.05 939.92,399.02 929.27,399.02 C918.62,399.02 910.1,394.05 910.1,347.9 L910.1,4.97 L827.74,4.97 L827.74,345.06 C827.74,452.27 863.24,477.12 922.17,477.12 Z" id="Path"></path>
                <path d="M1143.69,472.15 L1234.57,472.15 C1321.9,472.15 1346.75,440.91 1346.75,237.14 C1346.75,49.7 1322.61,4.97 1228.89,4.97 L1143.69,4.97 L1143.69,472.15 Z M1226.05,395.47 L1226.05,81.65 L1235.28,81.65 C1260.13,81.65 1264.39,96.56 1264.39,237.14 C1264.39,385.53 1262.26,395.47 1237.41,395.47 L1226.05,395.47 Z" id="Shape"></path>
                <path d="M1478.81,477.12 C1551.94,477.12 1579.63,430.26 1579.63,236.43 C1579.63,52.54 1552.65,0 1478.81,0 C1404.97,0 1377.99,52.54 1377.99,236.43 C1377.99,430.26 1405.68,477.12 1478.81,477.12 Z M1478.81,400.44 C1465.32,400.44 1460.35,388.37 1460.35,236.43 C1460.35,91.59 1465.32,76.68 1478.81,76.68 C1492.3,76.68 1497.27,91.59 1497.27,236.43 C1497.27,388.37 1492.3,400.44 1478.81,400.44 Z" id="Shape"></path>
                <polygon id="Path" points="1613.71 472.15 1686.13 472.15 1676.9 108.63 1678.32 108.63 1738.67 472.15 1835.23 472.15 1835.23 4.97 1762.81 4.97 1773.46 335.12 1772.04 335.12 1725.18 4.97 1613.71 4.97"></polygon>
                <path d="M1862.92,183.89 C1907.65,179.63 1935.34,154.78 1935.34,75.97 L1935.34,4.97 L1866.47,4.97 L1866.47,101.53 L1892.74,101.53 L1892.74,103.66 C1892.74,131.35 1882.8,142.71 1862.92,145.55 L1862.92,183.89 Z" id="Path"></path>
                <polygon id="Path" points="2009.83 472.15 2092.19 472.15 2092.19 81.65 2139.76 81.65 2139.76 4.97 1962.26 4.97 1962.26 81.65 2009.83 81.65"></polygon>
            </g>
        </g>
    </g>
</svg>