<?xml version="1.0" encoding="utf-8"?>
<!-- Generator: Adobe Illustrator 20.1.0, SVG Export Plug-In . SVG Version: 6.00 Build 0)  -->
<svg version="1.1" xmlns="http://www.w3.org/2000/svg" xmlns:xlink="http://www.w3.org/1999/xlink" x="0px" y="0px"
	 viewBox="0 0 684.5 153" style="enable-background:new 0 0 684.5 153;" xml:space="preserve">
<style type="text/css">
	.st0{fill:#F9FAFB;}
</style>
<g id="tag">
	<g>
		<path d="M623.5,91.2c-8.1,0-14.8-6.6-14.8-14.8s6.6-14.8,14.8-14.8s14.8,6.6,14.8,14.8S631.6,91.2,623.5,91.2 M632.1,0H0v153
			h632.1l52.4-50.2V50.2L632.1,0z"/>
	</g>
</g>
<g id="text">
	<g>
		<path class="st0" d="M48.2,56.7h6.5l2.5-12.6H69l-2.5,12.6h6.9L76,44.1h11.9l-2.5,12.6H92l-2.2,11.1h-6.6l-1.9,9.9h6.6l-2.2,11.1
			h-6.6l-2.6,13.9H64.6l2.6-13.9h-6.9l-2.6,13.9H45.8l2.6-13.9h-6.6l2.2-11.1h6.6l1.9-9.9H46L48.2,56.7z M61.7,78.4H70l2.2-11.1
			h-8.3L61.7,78.4z"/>
		<path class="st0" d="M112,58.9H95.9V44.1h49.3v14.8h-16.1v43.8H112V58.9z"/>
		<path class="st0" d="M146.3,78.9c0-19.3,13.4-24.8,25.3-24.8c11.9,0,25.3,5.5,25.3,24.8c0,19.3-13.4,24.9-25.3,24.9
			C159.7,103.8,146.3,98.2,146.3,78.9z M179.7,78.9c0-7.6-2.8-11.4-8.2-11.4c-5.4,0-8.2,3.9-8.2,11.4c0,7.6,2.8,11.5,8.2,11.5
			C176.9,90.4,179.7,86.4,179.7,78.9z"/>
		<path class="st0" d="M204.7,44.1h22.8c20.9,0,30.9,11.8,30.9,29.3c0,17.5-10,29.3-30.9,29.3h-22.8V44.1z M227,88.9
			c11.1,0,13.4-8,13.4-15.4S238.2,58,227,58h-5.1v30.9H227z"/>
		<path class="st0" d="M263.4,78.9c0-19.3,13.4-24.8,25.3-24.8c11.9,0,25.3,5.5,25.3,24.8c0,19.3-13.4,24.9-25.3,24.9
			C276.8,103.8,263.4,98.2,263.4,78.9z M296.9,78.9c0-7.6-2.8-11.4-8.2-11.4c-5.4,0-8.2,3.9-8.2,11.4c0,7.6,2.8,11.5,8.2,11.5
			C294,90.4,296.9,86.4,296.9,78.9z"/>
		<path class="st0" d="M321.2,55.1h15.2v6.7c2.3-4.2,7.1-7.8,15.4-7.8c8.9,0,16.3,4.5,16.3,19.1v29.5h-16.9v-27c0-5.2-2-7.3-6.4-7.3
			c-3.3,0-5.5,1.4-6.7,2.6v31.7h-16.9V55.1z"/>
		<path class="st0" d="M379,67.4h-6.3V55.1h4.3c4.4,0,5.9-1.6,5.9-5.7V42h13v13.1h13.9v12.3h-13.9v16.8c0,4.2,1.4,6.3,6.8,6.3
			c2.2,0,4.8-0.5,6.2-1V102c-1.9,0.8-6.5,1.8-11.2,1.8c-14.4,0-18.7-7.6-18.7-17.6V67.4z"/>
		<path class="st0" d="M417.2,44.1h17.2v43.8H459v14.8h-41.8V44.1z"/>
		<path class="st0" d="M464.4,33.2h16.9v14.1h-16.9V33.2z M464.4,55.1h16.9v47.6h-16.9V55.1z"/>
		<path class="st0" d="M504.4,87c0.2,4.3,3.2,5.9,7.3,5.9c4.1,0,5.7-1.5,5.7-3.2c0-3.5-7.1-3.6-14.9-5.9
			c-5.8-1.7-13.2-4.9-13.2-14.3c0-9.6,7.8-15.4,20.9-15.4c11.8,0,21.2,4.7,22,15h-16.6c-0.3-3.1-2.7-4.3-5.2-4.3
			c-2.5,0-4.4,1.2-4.4,3.1c0,3.5,6.4,4.1,12.6,5.6c9.6,2.3,15.4,6.1,15.4,14.4c0,8.7-6.6,15.9-22,15.9c-14.1,0-23.3-5.9-24.1-16.8
			H504.4z"/>
		<path class="st0" d="M542.5,67.4h-6.3V55.1h4.3c4.4,0,5.9-1.6,5.9-5.7V42h13v13.1h13.9v12.3h-13.9v16.8c0,4.2,1.4,6.3,6.8,6.3
			c2.2,0,4.8-0.5,6.2-1V102c-1.9,0.8-6.5,1.8-11.2,1.8c-14.4,0-18.7-7.6-18.7-17.6V67.4z"/>
	</g>
</g>
</svg>
