<?xml version="1.0" encoding="utf-8"?>
<!-- Generator: Adobe Illustrator 16.0.0, SVG Export Plug-In . SVG Version: 6.00 Build 0)  -->
<!DOCTYPE svg PUBLIC "-//W3C//DTD SVG 1.1//EN" "http://www.w3.org/Graphics/SVG/1.1/DTD/svg11.dtd">
<svg version="1.1" id="Layer_1" xmlns="http://www.w3.org/2000/svg" xmlns:xlink="http://www.w3.org/1999/xlink" x="0px" y="0px"
	 width="250px" height="203.178px" viewBox="0 0 250 203.178" enable-background="new 0 0 250 203.178" xml:space="preserve">
<g fill="none">
	<defs>
		<rect id="SVGID_1_" width="250" height="203.178"/>
	</defs>
	<use xlink:href="#SVGID_1_"  overflow="visible"/>
	<clipPath id="SVGID_2_">
		<use xlink:href="#SVGID_1_"  overflow="visible"/>
	</clipPath>
	<path clip-path="url(#SVGID_2_)" fill="#FFFFFF" d="M78.624,203.178c94.342,0,145.936-78.161,145.936-145.936
		c0-2.221-0.045-4.431-0.147-6.631c10.015-7.239,18.72-16.272,25.588-26.557c-9.19,4.083-19.081,6.834-29.456,8.075
		c10.589-6.349,18.721-16.397,22.555-28.373c-9.912,5.875-20.886,10.149-32.568,12.45C201.17,6.236,187.841,0,173.09,0
		c-28.326,0-51.298,22.972-51.298,51.288c0,4.026,0.451,7.939,1.331,11.695C80.495,60.84,42.694,40.429,17.4,9.394
		c-4.409,7.578-6.947,16.386-6.947,25.78c0,17.795,9.056,33.504,22.825,42.694c-8.413-0.259-16.318-2.571-23.231-6.416
		c-0.011,0.214-0.011,0.428-0.011,0.653c0,24.844,17.683,45.582,41.15,50.285c-4.308,1.172-8.841,1.804-13.521,1.804
		c-3.304,0-6.518-0.326-9.642-0.925c6.529,20.378,25.464,35.207,47.916,35.625c-17.558,13.757-39.672,21.956-63.704,21.956
		c-4.138,0-8.221-0.237-12.235-0.711C22.7,194.687,49.652,203.178,78.624,203.178"/>
</g>
</svg>
